<svg width="81" height="74" viewBox="0 0 81 74" fill="none" xmlns="http://www.w3.org/2000/svg">
<path d="M62.5186 0.5C63.8331 0.5 64.8884 1.00771 65.7217 2.04688C66.4998 3.01732 66.7513 4.05079 66.498 5.1875L66.4414 5.41602L66.4375 5.42871L63.1934 18.3789L63.0371 19H76.3096C77.6172 19 78.6563 19.4643 79.4648 20.4023L79.623 20.5967C80.4541 21.6663 80.6926 22.8365 80.3457 24.1543L80.3428 24.165L80.3408 24.1758C80.1464 25.0808 79.7163 25.7866 79.0498 26.3164L78.9131 26.4199C78.1513 26.9726 77.2891 27.25 76.3096 27.25H60.9697L60.875 27.6289L56.2393 46.1289L56.084 46.75H69.3564C70.6636 46.75 71.702 47.2156 72.5107 48.1562L72.6699 48.3506C73.5018 49.424 73.739 50.5926 73.3926 51.9033L73.3896 51.915L73.3877 51.9258C73.1933 52.8307 72.7631 53.5366 72.0967 54.0664L71.96 54.1699C71.1982 54.7227 70.336 55 69.3564 55H54.0176L53.9219 55.3779L50.0977 70.5244L50.0957 70.5342C49.8882 71.4313 49.4444 72.1412 48.7637 72.6846C48.0883 73.2235 47.2742 73.4999 46.2949 73.5C44.9804 73.5 43.9251 72.9923 43.0918 71.9531C42.3137 70.9827 42.0622 69.9492 42.3154 68.8125L42.3721 68.584L42.376 68.5713L45.6201 55.6211L45.7764 55H26.2041L26.1084 55.3779L22.2842 70.5244L22.2822 70.5342C22.1007 71.3192 21.7381 71.9605 21.1943 72.4727L20.9502 72.6846C20.2748 73.2235 19.4608 73.4999 18.4814 73.5C17.1669 73.5 16.1116 72.9923 15.2783 71.9531C14.5002 70.9827 14.2487 69.9492 14.502 68.8125L14.5586 68.584L14.5625 68.5713L17.8066 55.6211L17.9629 55H4.69043C3.38282 55 2.3437 54.5357 1.53516 53.5977L1.37695 53.4033C0.54587 52.3337 0.307434 51.1635 0.654297 49.8457L0.657227 49.835L0.65918 49.8242C0.853555 48.9192 1.28371 48.2134 1.9502 47.6836L2.08691 47.5801C2.84867 47.0274 3.71091 46.75 4.69043 46.75H20.0303L20.125 46.3711L24.7607 27.8711L24.916 27.25H11.6436C10.3359 27.25 9.29684 26.7858 8.48828 25.8477L8.33008 25.6533C7.499 24.5837 7.26056 23.4135 7.60742 22.0957L7.61035 22.085L7.6123 22.0742C7.80666 21.1693 8.23692 20.4634 8.90332 19.9336L9.04004 19.8301C9.80181 19.2773 10.664 19 11.6436 19H26.9824L27.0781 18.6221L30.9023 3.47559L30.9043 3.46582C31.0859 2.68081 31.4484 2.03945 31.9922 1.52734L32.2363 1.31543C32.9117 0.776504 33.7258 0.500083 34.7051 0.5C36.0196 0.5 37.0749 1.0077 37.9082 2.04688C38.6863 3.01731 38.9378 4.05079 38.6846 5.1875L38.6279 5.41602L38.624 5.42871L35.3799 18.3789L35.2236 19H54.7959L54.8916 18.6221L58.7158 3.47559L58.7178 3.46582C58.8993 2.68081 59.2619 2.03945 59.8057 1.52734L60.0498 1.31543C60.7251 0.776501 61.5392 0.500087 62.5186 0.5ZM33.0615 27.6289L28.4258 46.1289L28.2705 46.75H47.8438L47.9385 46.3711L52.5742 27.8711L52.7295 27.25H33.1562L33.0615 27.6289Z" fill="#6366F1" stroke="#6366F1"/>
</svg>
