<svg width="74" height="74" viewBox="0 0 74 74" fill="none" xmlns="http://www.w3.org/2000/svg">
<path d="M37 0.5C41.7326 0.500003 46.1965 1.34264 50.3955 3.02637L51.2324 3.375C55.405 5.17472 59.0604 7.57252 62.2021 10.5684L62.8242 11.1758C65.8979 14.2518 68.3769 17.8392 70.2607 21.9414L70.6289 22.7686C72.4291 26.9296 73.384 31.3572 73.4902 36.0557L73.5 36.999C73.4931 41.7345 72.6496 46.1991 70.9717 50.3965L70.625 51.2324C68.8323 55.4025 66.4345 59.0573 63.4326 62.2012L62.8242 62.8232C59.7411 65.8995 56.1536 68.379 52.0576 70.2607L51.2314 70.6289C46.8004 72.5467 42.058 73.5049 37 73.5C32.2626 73.5 27.7984 72.6573 23.6035 70.9736L22.7686 70.625C18.6003 68.8252 14.945 66.4269 11.7988 63.4307L11.1758 62.8242C8.0977 59.7484 5.61968 56.1612 3.74219 52.0596L3.375 51.2324C1.46183 46.7935 0.502467 42.0508 0.5 37L0.510742 36.0566C0.613737 31.6711 1.45308 27.5216 3.02637 23.6045L3.375 22.7686C5.17714 18.5978 7.57509 14.942 10.5693 11.7979L11.1758 11.1758C14.2493 8.09993 17.8364 5.62177 21.9404 3.74219L22.7676 3.375C27.209 1.45937 31.9518 0.5 37 0.5ZM37 6.90039C28.869 6.90039 21.9263 9.63895 16.1992 15.1113L15.6494 15.6494C9.81869 21.4801 6.90039 28.6069 6.90039 37C6.90039 45.131 9.63895 52.0737 15.1113 57.8008L15.6494 58.3506C21.2979 63.9991 28.1626 66.9151 36.2168 67.0918L37 67.0996C45.131 67.0996 52.0737 64.3611 57.8008 58.8887L58.3506 58.3506C64.1813 52.5199 67.0996 45.3931 67.0996 37C67.0996 28.869 64.361 21.9263 58.8887 16.1992L58.3506 15.6494C52.5199 9.81869 45.3931 6.9004 37 6.90039ZM48.0996 43.6055C48.4078 43.6055 48.6817 43.7015 48.9346 43.915L49.041 44.0137L53.2969 48.2686C53.7642 48.736 53.9824 49.2588 53.9824 49.8574C53.9824 50.456 53.7642 50.9788 53.2969 51.4463C52.8293 51.9138 52.3058 52.1328 51.707 52.1328C51.1085 52.1327 50.5856 51.9137 50.1182 51.4463L48.0996 49.4277L43.4912 54.0361C43.2087 54.3187 42.9019 54.4453 42.5498 54.4453C42.2418 54.4453 41.9686 54.3482 41.7158 54.1348L41.6084 54.0361L37 49.4277L32.3916 54.0361C32.1091 54.3186 31.8022 54.4453 31.4502 54.4453C31.142 54.4453 30.8682 54.3484 30.6152 54.1348L30.5088 54.0361L25.9004 49.4277L23.8818 51.4463C23.4144 51.9137 22.8915 52.1327 22.293 52.1328C21.7692 52.1328 21.3032 51.9652 20.8818 51.6104L20.7031 51.4463C20.2358 50.9788 20.0176 50.456 20.0176 49.8574C20.0176 49.3335 20.1849 48.8678 20.54 48.4463L20.7031 48.2686L24.959 44.0137C25.2415 43.7312 25.5484 43.6055 25.9004 43.6055C26.2083 43.6056 26.4816 43.7017 26.7344 43.915L26.8418 44.0137L31.4502 48.6221L36.0586 44.0137C36.3411 43.7311 36.6479 43.6055 37 43.6055C37.308 43.6055 37.5812 43.7017 37.834 43.915L37.9414 44.0137L42.5498 48.6221L47.1582 44.0137C47.4406 43.7312 47.7477 43.6056 48.0996 43.6055ZM20.4512 21.5312C21.038 21.41 21.5658 21.5382 22.0723 21.9434L22.0811 21.9492L22.0898 21.9561L31.0625 28.5234C31.4265 28.7983 31.5976 29.1425 31.5977 29.5996C31.5977 30.0014 31.4656 30.3163 31.1865 30.5732L31.0576 30.6797L22.0898 37.2441L22.0801 37.251L22.0713 37.2588C21.6314 37.6139 21.1729 37.7556 20.6709 37.7031L20.4521 37.6689C19.8286 37.5384 19.3129 37.2177 18.8916 36.6885C18.539 36.2455 18.3977 35.7858 18.4492 35.2842L18.4824 35.0664C18.6106 34.446 18.9299 33.9299 19.46 33.5059L19.459 33.5049L24.2529 30.0039L24.8047 29.5996L24.2529 29.1963L19.4424 25.6816C18.8553 25.2526 18.5375 24.7447 18.4385 24.1523C18.3401 23.5639 18.48 23.0272 18.8906 22.5117C19.3149 21.9793 19.8314 21.6593 20.4512 21.5312ZM53.332 21.501L53.5488 21.5352C54.1666 21.6633 54.6834 21.9826 55.1104 22.5137C55.517 23.0196 55.6443 23.5464 55.5215 24.1318C55.391 24.753 55.0685 25.27 54.5381 25.6943L49.7471 29.1963L49.1953 29.5996L49.7471 30.0039L54.5576 33.5186C55.1446 33.9476 55.4625 34.4555 55.5615 35.0479C55.6598 35.6363 55.52 36.1731 55.1094 36.6885C54.7382 37.1544 54.2961 37.4571 53.7764 37.6113L53.5488 37.668C52.962 37.7892 52.4342 37.6619 51.9277 37.2568L51.9189 37.25L51.9102 37.2441L42.9414 30.6797H42.9424C42.5751 30.4041 42.4023 30.0588 42.4023 29.5996C42.4024 29.1425 42.5735 28.7983 42.9375 28.5234L51.9102 21.9561L51.9258 21.9443C52.3717 21.5909 52.8322 21.4494 53.332 21.501Z" fill="#6366F1" stroke="#6366F1"/>
</svg>
