<svg width="94" height="76" viewBox="0 0 94 76" fill="none" xmlns="http://www.w3.org/2000/svg">
<path d="M3.30005 10.1998L28.5994 1L53.8988 10.1998L42.3991 17.0996V23.9994C42.3991 23.9994 39.331 21.6995 28.5994 21.6995C17.8679 21.6995 14.7998 23.9994 14.7998 23.9994V17.0996L3.30005 10.1998ZM3.30005 10.1998V28.5993V10.1998Z" fill="#6366F1"/>
<path d="M3.30005 10.1998L28.5994 1L53.8988 10.1998L42.3991 17.0996V23.9994C42.3991 23.9994 39.331 21.6995 28.5994 21.6995C17.8679 21.6995 14.7998 23.9994 14.7998 23.9994V17.0996L3.30005 10.1998ZM3.30005 10.1998V28.5993" stroke="#6366F1" stroke-width="1.5" stroke-linecap="round" stroke-linejoin="round"/>
<path d="M42.399 21.6995V25.7888C42.399 33.6914 36.2213 40.0991 28.5993 40.0991C20.9773 40.0991 14.7997 33.6914 14.7997 25.7888V21.6995M62.2613 33.3372C62.2613 33.3372 64.4923 31.7135 72.2983 31.7135C80.1043 31.7135 82.3352 33.3326 82.3352 33.3326M62.2613 33.3372V28.5993L53.8987 23.9994L72.2983 17.0996L90.6978 23.9994L82.3352 28.5993V33.3326M62.2613 33.3372V34.662C62.2613 37.3239 63.3188 39.8769 65.2011 41.7592C67.0834 43.6415 69.6363 44.6989 72.2983 44.6989C74.9602 44.6989 77.5132 43.6415 79.3955 41.7592C81.2778 39.8769 82.3352 37.3239 82.3352 34.662V33.3326M11.9707 55.8583C7.63304 58.2824 -3.74249 63.2273 3.18494 69.4141C6.57046 72.4363 10.3378 74.5982 15.0803 74.5982H42.1184C46.8563 74.5982 50.6282 72.4363 54.0137 69.4141C60.9411 63.2273 49.5656 58.2824 45.2279 55.8583C35.053 50.1774 22.1457 50.1774 11.9707 55.8583ZM65.3984 74.5982H82.441C85.9967 74.5982 88.8211 72.8687 91.3602 70.4491C96.5581 65.4996 88.0253 61.5437 84.7732 59.6072C81.881 57.9001 78.6695 56.8042 75.337 56.3873C72.0046 55.9703 68.6221 56.2411 65.3984 57.183" fill="#6366F1"/>
<path d="M42.399 21.6995V25.7888C42.399 33.6914 36.2213 40.0991 28.5993 40.0991C20.9773 40.0991 14.7997 33.6914 14.7997 25.7888V21.6995M62.2613 33.3372C62.2613 33.3372 64.4923 31.7135 72.2983 31.7135C80.1043 31.7135 82.3352 33.3326 82.3352 33.3326M62.2613 33.3372V28.5993L53.8987 23.9994L72.2983 17.0996L90.6978 23.9994L82.3352 28.5993V33.3326M62.2613 33.3372V34.662C62.2613 37.324 63.3188 39.8769 65.2011 41.7592C67.0834 43.6415 69.6363 44.6989 72.2983 44.6989C74.9602 44.6989 77.5132 43.6415 79.3955 41.7592C81.2778 39.8769 82.3352 37.324 82.3352 34.662V33.3326M65.3984 74.5982H82.441C85.9967 74.5982 88.8211 72.8687 91.3602 70.4491C96.5581 65.4996 88.0253 61.5437 84.7732 59.6072C81.881 57.9001 78.6695 56.8042 75.337 56.3873C72.0046 55.9703 68.6221 56.2411 65.3984 57.183M11.9707 55.8583C7.63304 58.2824 -3.74249 63.2273 3.18494 69.4141C6.57046 72.4363 10.3378 74.5982 15.0803 74.5982H42.1184C46.8563 74.5982 50.6282 72.4363 54.0137 69.4141C60.9411 63.2273 49.5656 58.2824 45.2279 55.8583C35.053 50.1774 22.1457 50.1774 11.9707 55.8583Z" stroke="#6366F1" stroke-width="1.5" stroke-linecap="round" stroke-linejoin="round"/>
</svg>
