<svg width="18" height="22" viewBox="0 0 18 22" fill="none" xmlns="http://www.w3.org/2000/svg">
<path d="M7.37528 1.24981C8.52828 1.24981 9.61528 1.53981 10.5643 2.04981C10.4883 2.49481 10.3403 2.80981 10.1383 3.01281C10.0129 3.13457 9.86429 3.2298 9.70128 3.29281C9.07724 2.9997 8.40158 2.83237 7.71287 2.80038C7.02416 2.76839 6.3359 2.87237 5.68737 3.10637C5.03885 3.34038 4.44276 3.69983 3.93316 4.1642C3.42355 4.62857 3.01039 5.18877 2.71728 5.81281C2.42417 6.43685 2.25685 7.11251 2.22486 7.80122C2.19287 8.48993 2.29684 9.17819 2.53085 9.82672C2.76485 10.4752 3.1243 11.0713 3.58867 11.5809C4.05304 12.0905 4.61324 12.5037 5.23728 12.7968C5.92595 13.0641 6.56128 13.2131 7.14328 13.2438L7.37528 13.2498C8.02062 13.2498 8.73295 13.0991 9.51228 12.7978C10.4238 12.3885 11.201 11.7298 11.7543 10.8978C12.3943 11.1178 13.1633 10.9838 13.6483 10.4968C13.2356 11.5313 12.5736 12.4478 11.7213 13.1648L13.3423 18.0298C13.4713 18.417 13.461 18.8371 13.3131 19.2175C13.1652 19.5978 12.889 19.9145 12.5323 20.1128C11.1613 20.8758 9.43928 21.2498 7.37528 21.2498C5.31128 21.2498 3.58928 20.8758 2.21828 20.1128C1.86157 19.9145 1.58536 19.5978 1.43745 19.2175C1.28954 18.8371 1.27922 18.417 1.40828 18.0298L3.02928 13.1648C1.96989 12.2735 1.21021 11.0779 0.853237 9.74024C0.496259 8.40256 0.559249 6.98747 1.03367 5.6868C1.50809 4.38614 2.37098 3.26281 3.50538 2.46912C4.63977 1.67542 5.99079 1.24975 7.37528 1.24981ZM10.4323 14.0408L10.0723 14.1898L10.0543 14.1978C9.30969 14.5201 8.51275 14.7044 7.70228 14.7418H7.68528L7.61228 14.7458L7.37528 14.7498L7.17928 14.7458L7.04928 14.7408C6.23853 14.7038 5.44125 14.5198 4.69628 14.1978L4.67828 14.1898C4.55741 14.1423 4.43739 14.0926 4.31828 14.0408L2.83128 18.5048C2.81293 18.56 2.81438 18.6198 2.83537 18.674C2.85636 18.7282 2.89558 18.7734 2.94628 18.8018C4.07628 19.4288 5.54928 19.7498 7.37528 19.7498C9.20128 19.7498 10.6753 19.4298 11.8043 18.8018C11.855 18.7734 11.8942 18.7282 11.9152 18.674C11.9362 18.6198 11.9376 18.56 11.9193 18.5048L10.4323 14.0408ZM7.06528 14.7428L7.17928 14.7458L7.21228 14.7478L7.37528 14.7498C7.27128 14.7498 7.16795 14.7475 7.06528 14.7428ZM13.3673 1.12981L13.3753 1.24981C13.3753 2.39981 13.6453 3.20981 14.1553 3.71981C14.6263 4.18981 15.3533 4.45681 16.3653 4.49481L16.6253 4.49981C17.5833 4.49981 17.6233 5.87781 16.7453 5.99181L16.6253 5.99981C15.4753 5.99981 14.6653 6.26981 14.1553 6.77981C13.6853 7.25181 13.4183 7.97781 13.3803 8.98981L13.3753 9.24981C13.3753 10.2498 11.8753 10.2498 11.8753 9.24981C11.8753 8.09981 11.6053 7.28981 11.0953 6.77981C10.6233 6.30981 9.89728 6.04281 8.88528 6.00481L8.62528 5.99981C7.66728 5.99981 7.62728 4.62181 8.50528 4.50781L8.62528 4.49981C9.77528 4.49981 10.5853 4.22981 11.0953 3.71981C11.6053 3.20981 11.8753 2.39981 11.8753 1.24981C11.8753 0.291807 13.2533 0.251807 13.3673 1.12981ZM12.6253 4.20281L12.4813 4.40581C12.2309 4.73718 11.925 5.02273 11.5773 5.24981C11.9954 5.52238 12.3523 5.87893 12.6253 6.29681C12.898 5.87903 13.2545 5.52249 13.6723 5.24981C13.3249 5.02264 13.0194 4.7371 12.7693 4.40581L12.6253 4.20281Z" fill="#808080"/>
</svg>
