<svg width="20" height="21" viewBox="0 0 20 21" fill="none" xmlns="http://www.w3.org/2000/svg">
<path d="M18.219 10.9112C18.0587 10.7287 17.9703 10.4941 17.9703 10.2512C17.9703 10.0083 18.0587 9.77367 18.219 9.59118L19.499 8.15118C19.64 7.99385 19.7276 7.79588 19.7492 7.58568C19.7707 7.37549 19.7252 7.16386 19.619 6.98118L17.619 3.52118C17.5139 3.3387 17.3539 3.19405 17.1617 3.10786C16.9696 3.02167 16.7552 2.99833 16.549 3.04118L14.669 3.42118C14.4298 3.47061 14.1807 3.43077 13.9689 3.30918C13.757 3.18759 13.597 2.99266 13.519 2.76118L12.909 0.931177C12.8419 0.732556 12.7141 0.560042 12.5436 0.438019C12.3731 0.315996 12.1686 0.250636 11.959 0.251177H7.95899C7.74092 0.239795 7.52512 0.300103 7.34455 0.422891C7.16398 0.545679 7.02857 0.724196 6.95899 0.931177L6.39899 2.76118C6.32099 2.99266 6.16096 3.18759 5.9491 3.30918C5.73724 3.43077 5.4882 3.47061 5.24899 3.42118L3.31899 3.04118C3.12354 3.01356 2.92429 3.0444 2.74634 3.12982C2.56838 3.21523 2.41969 3.35141 2.31899 3.52118L0.318988 6.98118C0.210148 7.16183 0.16121 7.37226 0.179171 7.5824C0.197131 7.79254 0.28107 7.99162 0.418988 8.15118L1.68899 9.59118C1.84931 9.77367 1.93772 10.0083 1.93772 10.2512C1.93772 10.4941 1.84931 10.7287 1.68899 10.9112L0.418988 12.3512C0.28107 12.5107 0.197131 12.7098 0.179171 12.92C0.16121 13.1301 0.210148 13.3405 0.318988 13.5212L2.31899 16.9812C2.42409 17.1637 2.58411 17.3083 2.77624 17.3945C2.96837 17.4807 3.18281 17.504 3.38899 17.4612L5.26899 17.0812C5.5082 17.0317 5.75724 17.0716 5.9691 17.1932C6.18096 17.3148 6.34099 17.5097 6.41899 17.7412L7.02899 19.5712C7.09857 19.7782 7.23398 19.9567 7.41455 20.0795C7.59512 20.2022 7.81092 20.2626 8.02899 20.2512H12.029C12.2386 20.2517 12.4431 20.1864 12.6136 20.0643C12.7841 19.9423 12.9119 19.7698 12.979 19.5712L13.589 17.7412C13.667 17.5097 13.827 17.3148 14.0389 17.1932C14.2507 17.0716 14.4998 17.0317 14.739 17.0812L16.619 17.4612C16.8252 17.504 17.0396 17.4807 17.2317 17.3945C17.4239 17.3083 17.5839 17.1637 17.689 16.9812L19.689 13.5212C19.7952 13.3385 19.8407 13.1269 19.8192 12.9167C19.7976 12.7065 19.71 12.5085 19.569 12.3512L18.219 10.9112ZM16.729 12.2512L17.529 13.1512L16.249 15.3712L15.069 15.1312C14.3488 14.984 13.5996 15.1063 12.9636 15.475C12.3276 15.8437 11.8491 16.433 11.619 17.1312L11.239 18.2512H8.67899L8.31899 17.1112C8.08884 16.413 7.61037 15.8237 6.97439 15.455C6.33842 15.0863 5.58921 14.964 4.86899 15.1112L3.68899 15.3512L2.38899 13.1412L3.18899 12.2412C3.68094 11.6912 3.95292 10.9791 3.95292 10.2412C3.95292 9.50324 3.68094 8.7912 3.18899 8.24118L2.38899 7.34118L3.66899 5.14118L4.84899 5.38118C5.56921 5.5284 6.31842 5.40606 6.95439 5.03738C7.59037 4.66869 8.06884 4.07934 8.29899 3.38118L8.67899 2.25118H11.239L11.619 3.39118C11.8491 4.08934 12.3276 4.67869 12.9636 5.04738C13.5996 5.41606 14.3488 5.5384 15.069 5.39118L16.249 5.15118L17.529 7.37118L16.729 8.27118C16.2426 8.81994 15.974 9.52786 15.974 10.2612C15.974 10.9945 16.2426 11.7024 16.729 12.2512ZM9.95899 6.25118C9.16786 6.25118 8.3945 6.48577 7.73671 6.9253C7.07891 7.36482 6.56622 7.98954 6.26347 8.72044C5.96072 9.45135 5.88151 10.2556 6.03585 11.0315C6.19019 11.8075 6.57115 12.5202 7.13056 13.0796C7.68997 13.639 8.4027 14.02 9.17863 14.1743C9.95455 14.3287 10.7588 14.2494 11.4897 13.9467C12.2206 13.6439 12.8453 13.1313 13.2849 12.4735C13.7244 11.8157 13.959 11.0423 13.959 10.2512C13.959 9.19031 13.5376 8.17289 12.7874 7.42275C12.0373 6.6726 11.0199 6.25118 9.95899 6.25118ZM9.95899 12.2512C9.56343 12.2512 9.17675 12.1339 8.84785 11.9141C8.51895 11.6944 8.2626 11.382 8.11123 11.0165C7.95985 10.6511 7.92025 10.249 7.99742 9.861C8.07459 9.47303 8.26507 9.11667 8.54477 8.83696C8.82448 8.55726 9.18085 8.36678 9.56881 8.28961C9.95677 8.21244 10.3589 8.25204 10.7244 8.40342C11.0898 8.55479 11.4022 8.81114 11.6219 9.14004C11.8417 9.46894 11.959 9.85561 11.959 10.2512C11.959 10.7816 11.7483 11.2903 11.3732 11.6654C10.9981 12.0405 10.4894 12.2512 9.95899 12.2512Z" fill="#808080"/>
</svg>
