<svg width="18" height="21" viewBox="0 0 18 21" fill="none" xmlns="http://www.w3.org/2000/svg">
<path d="M7 13.5C3.6865 13.5 1 10.8135 1 7.5C1 4.1865 3.6865 1.5 7 1.5" stroke="#808080" stroke-width="2" stroke-linecap="round" stroke-linejoin="round"/>
<path d="M7 9.5C6.46957 9.5 5.96086 9.28929 5.58579 8.91421C5.21071 8.53914 5 8.03043 5 7.5C5 6.96957 5.21071 6.46086 5.58579 6.08579C5.96086 5.71071 6.46957 5.5 7 5.5M11 15.5C11.5304 15.5 12.0391 15.2893 12.4142 14.9142C12.7893 14.5391 13 14.0304 13 13.5C13 12.9696 12.7893 12.4609 12.4142 12.0858C12.0391 11.7107 11.5304 11.5 11 11.5" stroke="#808080" stroke-width="2" stroke-linecap="round" stroke-linejoin="round"/>
<path d="M11 19.5C14.3135 19.5 17 16.8135 17 13.5C17 10.1865 14.3135 7.5 11 7.5" stroke="#808080" stroke-width="2" stroke-linecap="round" stroke-linejoin="round"/>
</svg>
